<mxfile host="app.diagrams.net" modified="2023-08-23T07:12:46.452Z" agent="Mozilla/5.0 (Macintosh; Intel Mac OS X 10_15_7) AppleWebKit/537.36 (KHTML, like Gecko) Chrome/115.0.0.0 Safari/537.36 Edg/115.0.1901.188" etag="si7w2IWvPCZogBk1zToP" version="21.6.8" type="github">
  <diagram name="第 1 页" id="pISDDa83iHC7F5RI85KE">
    <mxGraphModel dx="956" dy="531" grid="1" gridSize="10" guides="1" tooltips="1" connect="1" arrows="1" fold="1" page="1" pageScale="1" pageWidth="827" pageHeight="1169" math="0" shadow="0">
      <root>
        <mxCell id="0" />
        <mxCell id="1" parent="0" />
        <mxCell id="GpeoRBnSqrE-R5uOKPAl-3" value="" style="rounded=1;whiteSpace=wrap;html=1;fillColor=none;arcSize=6;dashed=1;dashPattern=8 8;" vertex="1" parent="1">
          <mxGeometry x="30" y="80" width="610" height="120" as="geometry" />
        </mxCell>
        <mxCell id="GpeoRBnSqrE-R5uOKPAl-41" style="edgeStyle=orthogonalEdgeStyle;rounded=0;orthogonalLoop=1;jettySize=auto;html=1;exitX=0.25;exitY=1;exitDx=0;exitDy=0;entryX=0.25;entryY=0;entryDx=0;entryDy=0;" edge="1" parent="1" source="GpeoRBnSqrE-R5uOKPAl-1" target="GpeoRBnSqrE-R5uOKPAl-10">
          <mxGeometry relative="1" as="geometry" />
        </mxCell>
        <mxCell id="GpeoRBnSqrE-R5uOKPAl-49" value="5" style="edgeLabel;html=1;align=center;verticalAlign=middle;resizable=0;points=[];" vertex="1" connectable="0" parent="GpeoRBnSqrE-R5uOKPAl-41">
          <mxGeometry x="-0.7375" y="1" relative="1" as="geometry">
            <mxPoint as="offset" />
          </mxGeometry>
        </mxCell>
        <mxCell id="GpeoRBnSqrE-R5uOKPAl-42" style="edgeStyle=orthogonalEdgeStyle;rounded=0;orthogonalLoop=1;jettySize=auto;html=1;exitX=0.75;exitY=1;exitDx=0;exitDy=0;entryX=0.75;entryY=0;entryDx=0;entryDy=0;" edge="1" parent="1" source="GpeoRBnSqrE-R5uOKPAl-1" target="GpeoRBnSqrE-R5uOKPAl-10">
          <mxGeometry relative="1" as="geometry" />
        </mxCell>
        <mxCell id="GpeoRBnSqrE-R5uOKPAl-1" value="拆红包" style="rounded=1;whiteSpace=wrap;html=1;" vertex="1" parent="1">
          <mxGeometry x="200" y="120" width="240" height="40" as="geometry" />
        </mxCell>
        <mxCell id="GpeoRBnSqrE-R5uOKPAl-2" value="节日摇红包 B2C" style="text;html=1;strokeColor=none;fillColor=none;align=center;verticalAlign=middle;whiteSpace=wrap;rounded=0;" vertex="1" parent="1">
          <mxGeometry x="10" y="10" width="130" height="30" as="geometry" />
        </mxCell>
        <mxCell id="GpeoRBnSqrE-R5uOKPAl-4" value="客户端" style="text;html=1;strokeColor=none;fillColor=none;align=center;verticalAlign=middle;whiteSpace=wrap;rounded=0;" vertex="1" parent="1">
          <mxGeometry x="50" y="90" width="50" height="30" as="geometry" />
        </mxCell>
        <mxCell id="GpeoRBnSqrE-R5uOKPAl-6" value="查看余额" style="rounded=1;whiteSpace=wrap;html=1;" vertex="1" parent="1">
          <mxGeometry x="240" y="10" width="260" height="40" as="geometry" />
        </mxCell>
        <mxCell id="GpeoRBnSqrE-R5uOKPAl-10" value="红包网关" style="rounded=1;whiteSpace=wrap;html=1;" vertex="1" parent="1">
          <mxGeometry x="200" y="320" width="240" height="40" as="geometry" />
        </mxCell>
        <mxCell id="GpeoRBnSqrE-R5uOKPAl-12" value="钱包网关" style="rounded=1;whiteSpace=wrap;html=1;" vertex="1" parent="1">
          <mxGeometry x="530" y="310" width="260" height="40" as="geometry" />
        </mxCell>
        <mxCell id="GpeoRBnSqrE-R5uOKPAl-13" value="" style="group" vertex="1" connectable="0" parent="1">
          <mxGeometry x="40" y="560" width="90" height="100" as="geometry" />
        </mxCell>
        <mxCell id="GpeoRBnSqrE-R5uOKPAl-14" value="" style="rounded=1;whiteSpace=wrap;html=1;" vertex="1" parent="GpeoRBnSqrE-R5uOKPAl-13">
          <mxGeometry width="90" height="95" as="geometry" />
        </mxCell>
        <mxCell id="GpeoRBnSqrE-R5uOKPAl-15" value="" style="group" vertex="1" connectable="0" parent="GpeoRBnSqrE-R5uOKPAl-13">
          <mxGeometry x="10" y="10" width="70" height="90" as="geometry" />
        </mxCell>
        <mxCell id="GpeoRBnSqrE-R5uOKPAl-16" value="" style="shape=datastore;whiteSpace=wrap;html=1;" vertex="1" parent="GpeoRBnSqrE-R5uOKPAl-15">
          <mxGeometry width="30" height="40" as="geometry" />
        </mxCell>
        <mxCell id="GpeoRBnSqrE-R5uOKPAl-17" value="&lt;span style=&quot;color: rgb(0, 0, 0); font-family: Helvetica; font-size: 12px; font-style: normal; font-variant-ligatures: normal; font-variant-caps: normal; font-weight: 400; letter-spacing: normal; orphans: 2; text-align: center; text-indent: 0px; text-transform: none; widows: 2; word-spacing: 0px; -webkit-text-stroke-width: 0px; background-color: rgb(251, 251, 251); text-decoration-thickness: initial; text-decoration-style: initial; text-decoration-color: initial; float: none; display: inline !important;&quot;&gt;Redis&amp;nbsp;&lt;/span&gt;&lt;span style=&quot;color: rgb(0, 0, 0); font-family: Helvetica; font-size: 12px; font-style: normal; font-variant-ligatures: normal; font-variant-caps: normal; font-weight: 400; letter-spacing: normal; orphans: 2; text-align: center; text-indent: 0px; text-transform: none; widows: 2; word-spacing: 0px; -webkit-text-stroke-width: 0px; background-color: rgb(251, 251, 251); text-decoration-thickness: initial; text-decoration-style: initial; text-decoration-color: initial; float: none; display: inline !important;&quot;&gt;集群&lt;/span&gt;" style="text;whiteSpace=wrap;html=1;" vertex="1" parent="GpeoRBnSqrE-R5uOKPAl-15">
          <mxGeometry x="5" y="60" width="60" height="30" as="geometry" />
        </mxCell>
        <mxCell id="GpeoRBnSqrE-R5uOKPAl-18" value="" style="shape=datastore;whiteSpace=wrap;html=1;" vertex="1" parent="GpeoRBnSqrE-R5uOKPAl-15">
          <mxGeometry x="40" width="30" height="40" as="geometry" />
        </mxCell>
        <mxCell id="GpeoRBnSqrE-R5uOKPAl-19" value="" style="shape=datastore;whiteSpace=wrap;html=1;" vertex="1" parent="GpeoRBnSqrE-R5uOKPAl-15">
          <mxGeometry x="20" y="20" width="30" height="40" as="geometry" />
        </mxCell>
        <mxCell id="GpeoRBnSqrE-R5uOKPAl-33" style="edgeStyle=orthogonalEdgeStyle;rounded=0;orthogonalLoop=1;jettySize=auto;html=1;exitX=1;exitY=0.75;exitDx=0;exitDy=0;entryX=0;entryY=0.75;entryDx=0;entryDy=0;" edge="1" parent="1" source="GpeoRBnSqrE-R5uOKPAl-21" target="GpeoRBnSqrE-R5uOKPAl-10">
          <mxGeometry relative="1" as="geometry" />
        </mxCell>
        <mxCell id="GpeoRBnSqrE-R5uOKPAl-44" style="edgeStyle=orthogonalEdgeStyle;rounded=0;orthogonalLoop=1;jettySize=auto;html=1;exitX=0.75;exitY=0;exitDx=0;exitDy=0;entryX=0.75;entryY=1;entryDx=0;entryDy=0;" edge="1" parent="1" source="GpeoRBnSqrE-R5uOKPAl-21" target="GpeoRBnSqrE-R5uOKPAl-24">
          <mxGeometry relative="1" as="geometry" />
        </mxCell>
        <mxCell id="GpeoRBnSqrE-R5uOKPAl-47" value="3" style="edgeLabel;html=1;align=center;verticalAlign=middle;resizable=0;points=[];" vertex="1" connectable="0" parent="GpeoRBnSqrE-R5uOKPAl-44">
          <mxGeometry x="-0.7292" y="1" relative="1" as="geometry">
            <mxPoint as="offset" />
          </mxGeometry>
        </mxCell>
        <mxCell id="GpeoRBnSqrE-R5uOKPAl-48" value="4" style="edgeLabel;html=1;align=center;verticalAlign=middle;resizable=0;points=[];" vertex="1" connectable="0" parent="GpeoRBnSqrE-R5uOKPAl-44">
          <mxGeometry x="0.7125" relative="1" as="geometry">
            <mxPoint as="offset" />
          </mxGeometry>
        </mxCell>
        <mxCell id="GpeoRBnSqrE-R5uOKPAl-21" value="用户网关" style="rounded=1;whiteSpace=wrap;html=1;" vertex="1" parent="1">
          <mxGeometry x="40" y="320" width="120" height="40" as="geometry" />
        </mxCell>
        <mxCell id="GpeoRBnSqrE-R5uOKPAl-43" style="edgeStyle=orthogonalEdgeStyle;rounded=0;orthogonalLoop=1;jettySize=auto;html=1;exitX=0.25;exitY=1;exitDx=0;exitDy=0;entryX=0.25;entryY=0;entryDx=0;entryDy=0;" edge="1" parent="1" source="GpeoRBnSqrE-R5uOKPAl-24" target="GpeoRBnSqrE-R5uOKPAl-21">
          <mxGeometry relative="1" as="geometry" />
        </mxCell>
        <mxCell id="GpeoRBnSqrE-R5uOKPAl-45" value="1" style="edgeLabel;html=1;align=center;verticalAlign=middle;resizable=0;points=[];" vertex="1" connectable="0" parent="GpeoRBnSqrE-R5uOKPAl-43">
          <mxGeometry x="-0.7375" relative="1" as="geometry">
            <mxPoint as="offset" />
          </mxGeometry>
        </mxCell>
        <mxCell id="GpeoRBnSqrE-R5uOKPAl-46" value="2" style="edgeLabel;html=1;align=center;verticalAlign=middle;resizable=0;points=[];" vertex="1" connectable="0" parent="GpeoRBnSqrE-R5uOKPAl-43">
          <mxGeometry x="0.7042" relative="1" as="geometry">
            <mxPoint as="offset" />
          </mxGeometry>
        </mxCell>
        <mxCell id="GpeoRBnSqrE-R5uOKPAl-24" value="登陆" style="rounded=1;whiteSpace=wrap;html=1;" vertex="1" parent="1">
          <mxGeometry x="40" y="120" width="120" height="40" as="geometry" />
        </mxCell>
        <mxCell id="GpeoRBnSqrE-R5uOKPAl-29" value="" style="rounded=1;whiteSpace=wrap;html=1;" vertex="1" parent="1">
          <mxGeometry x="200" y="400" width="80" height="40" as="geometry" />
        </mxCell>
        <mxCell id="GpeoRBnSqrE-R5uOKPAl-31" style="edgeStyle=orthogonalEdgeStyle;rounded=0;orthogonalLoop=1;jettySize=auto;html=1;entryX=1;entryY=0.25;entryDx=0;entryDy=0;" edge="1" parent="1" source="GpeoRBnSqrE-R5uOKPAl-30" target="GpeoRBnSqrE-R5uOKPAl-21">
          <mxGeometry relative="1" as="geometry" />
        </mxCell>
        <mxCell id="GpeoRBnSqrE-R5uOKPAl-30" value="过滤策略" style="text;html=1;strokeColor=none;fillColor=none;align=center;verticalAlign=middle;whiteSpace=wrap;rounded=0;fontColor=#6666FF;" vertex="1" parent="1">
          <mxGeometry x="200" y="315" width="60" height="30" as="geometry" />
        </mxCell>
        <mxCell id="GpeoRBnSqrE-R5uOKPAl-40" value="&lt;h1 style=&quot;font-size: 13px;&quot;&gt;&lt;font style=&quot;font-size: 13px;&quot;&gt;登陆&lt;/font&gt;&lt;/h1&gt;&lt;p style=&quot;font-size: 13px;&quot;&gt;&lt;font style=&quot;font-size: 13px;&quot;&gt;1. 客户端发起登陆请求，https协议&lt;/font&gt;&lt;/p&gt;&lt;p style=&quot;font-size: 13px;&quot;&gt;&lt;font style=&quot;font-size: 13px;&quot;&gt;2. 负载均衡将流量转发至用户网关&lt;/font&gt;&lt;/p&gt;&lt;p style=&quot;font-size: 13px;&quot;&gt;&lt;font style=&quot;font-size: 13px;&quot;&gt;3-4. 验证密码，返回token&lt;/font&gt;&lt;/p&gt;" style="text;html=1;strokeColor=none;fillColor=none;spacing=5;spacingTop=-20;whiteSpace=wrap;overflow=hidden;rounded=0;" vertex="1" parent="1">
          <mxGeometry x="850" y="30" width="220" height="110" as="geometry" />
        </mxCell>
        <mxCell id="GpeoRBnSqrE-R5uOKPAl-8" value="负载均衡、验权" style="rounded=1;whiteSpace=wrap;html=1;" vertex="1" parent="1">
          <mxGeometry x="40" y="240" width="600" height="40" as="geometry" />
        </mxCell>
      </root>
    </mxGraphModel>
  </diagram>
</mxfile>
